<?xml version="1.0" encoding="UTF-8" standalone="no"?>
<!-- Created with Inkscape (http://www.inkscape.org/) -->

<svg
   width="151.86781mm"
   height="78.952682mm"
   viewBox="0 0 151.86781 78.952682"
   version="1.1"
   id="svg5"
   inkscape:version="1.1 (c4e8f9e, 2021-05-24)"
   sodipodi:docname="logo.svg"
   xmlns:inkscape="http://www.inkscape.org/namespaces/inkscape"
   xmlns:sodipodi="http://sodipodi.sourceforge.net/DTD/sodipodi-0.dtd"
   xmlns="http://www.w3.org/2000/svg"
   xmlns:svg="http://www.w3.org/2000/svg">
  <sodipodi:namedview
     id="namedview7"
     pagecolor="#505050"
     bordercolor="#ffffff"
     borderopacity="1"
     inkscape:pageshadow="0"
     inkscape:pageopacity="0"
     inkscape:pagecheckerboard="1"
     inkscape:document-units="mm"
     showgrid="false"
     inkscape:snap-global="false"
     inkscape:zoom="0.78741022"
     inkscape:cx="374.64589"
     inkscape:cy="124.45863"
     inkscape:window-width="1819"
     inkscape:window-height="852"
     inkscape:window-x="2053"
     inkscape:window-y="25"
     inkscape:window-maximized="0"
     inkscape:current-layer="layer1" />
  <defs
     id="defs2" />
  <g
     inkscape:label="Layer 1"
     inkscape:groupmode="layer"
     id="layer1"
     transform="translate(-53.32699,-120.8507)">
    <path
       id="rect1007-5-2"
       style="fill:#075985;fill-opacity:1;fill-rule:evenodd;stroke:none;stroke-width:2.99552;stroke-linejoin:round;stroke-miterlimit:4;stroke-dasharray:none;stroke-opacity:1;stop-color:#000000"
       d="m 60.534796,128.31057 c 3.385178,-3.16056 2.559682,-7.45987 2.559682,-7.45987 H 195.26766 c 0,0 -0.40442,4.45757 2.70234,7.43217 3.10677,2.97462 7.22481,2.32081 7.22481,2.32081 v 59.19018 c 0,0 -4.84829,-0.12627 -7.51428,2.86682 -2.66599,2.9931 -2.25779,7.1427 -2.25779,7.1427 H 63.036537 c 0,0 0.751737,-3.83588 -2.366638,-7.2559 -3.118387,-3.42001 -7.342909,-2.63047 -7.342909,-2.63047 v -59.1682 c 0,0 3.822628,0.72231 7.207806,-2.43824 z"
       sodipodi:nodetypes="zcczcczcczccz" />
    <path
       id="rect1007-5"
       style="fill:#075985;fill-opacity:1;fill-rule:evenodd;stroke:#ffffff;stroke-width:2.60262;stroke-linejoin:round;stroke-miterlimit:4;stroke-dasharray:none;stroke-opacity:1;stop-color:#000000"
       d="m 67.680031,133.35416 c 3.033231,-2.66267 2.293559,-6.2847 2.293559,-6.2847 h 118.43156 c 0,0 -0.36238,3.75536 2.42138,6.26137 2.78377,2.50602 6.47367,1.9552 6.47367,1.9552 v 49.86589 c 0,0 -4.34424,-0.10638 -6.73304,2.41521 -2.38882,2.5216 -2.02305,6.01749 -2.02305,6.01749 H 69.921673 c 0,0 0.673582,-3.23161 -2.120586,-6.11286 -2.794178,-2.88125 -6.579489,-2.21609 -6.579489,-2.21609 v -3.80417 -3.59667 -4.77251 -3.87332 -3.59666 -4.15 -4.49583 -4.28836 -4.15 -4.49582 -3.735 -4.88903 c 0,0 3.425202,0.60852 6.458433,-2.05414 z"
       sodipodi:nodetypes="zcczcczcczcccccccccccccz" />
    <text
       xml:space="preserve"
       style="font-style:normal;font-variant:normal;font-weight:bold;font-stretch:normal;font-size:22.5778px;line-height:1.25;font-family:Kodchasan;-inkscape-font-specification:'Kodchasan, Bold';font-variant-ligatures:normal;font-variant-caps:normal;font-variant-numeric:normal;font-variant-east-asian:normal;fill:#ffffff;fill-opacity:1;stroke-width:0.264583"
       x="88.56353"
       y="156.38873"
       id="text15521"><tspan
         sodipodi:role="line"
         id="tspan15519"
         style="font-style:normal;font-variant:normal;font-weight:bold;font-stretch:normal;font-size:22.5778px;font-family:Kodchasan;-inkscape-font-specification:'Kodchasan, Bold';font-variant-ligatures:normal;font-variant-caps:normal;font-variant-numeric:normal;font-variant-east-asian:normal;fill:#ffffff;fill-opacity:1;stroke-width:0.264583"
         x="88.56353"
         y="156.38873">QUEUE</tspan></text>
    <text
       xml:space="preserve"
       style="font-style:normal;font-variant:normal;font-weight:bold;font-stretch:normal;font-size:22.5778px;line-height:1.25;font-family:Kodchasan;-inkscape-font-specification:'Kodchasan, Bold';font-variant-ligatures:normal;font-variant-caps:normal;font-variant-numeric:normal;font-variant-east-asian:normal;fill:#ffffff;fill-opacity:1;stroke-width:0.264583"
       x="109.67642"
       y="180.06981"
       id="text15521-7"><tspan
         sodipodi:role="line"
         id="tspan15519-9"
         style="font-style:normal;font-variant:normal;font-weight:bold;font-stretch:normal;font-size:22.5778px;font-family:Kodchasan;-inkscape-font-specification:'Kodchasan, Bold';font-variant-ligatures:normal;font-variant-caps:normal;font-variant-numeric:normal;font-variant-east-asian:normal;fill:#ffffff;fill-opacity:1;stroke-width:0.264583"
         x="109.67642"
         y="180.06981">API</tspan></text>
  </g>
</svg>
